<?xml version="1.0" encoding="UTF-8"?>
<!DOCTYPE svg PUBLIC "-//W3C//DTD SVG 1.1//EN" "http://www.w3.org/Graphics/SVG/1.1/DTD/svg11.dtd">
<!-- Creator: CorelDRAW 2019 -->
<svg xmlns="http://www.w3.org/2000/svg" xml:space="preserve" width="1.93474in" height="0.879484in" version="1.1" style="shape-rendering:geometricPrecision; text-rendering:geometricPrecision; image-rendering:optimizeQuality; fill-rule:evenodd; clip-rule:evenodd"
viewBox="0 0 629.18 286.01"
 xmlns:xlink="http://www.w3.org/1999/xlink">
 <defs>
  <style type="text/css">
   <![CDATA[
    .fil0 {fill:#FEFEFE}
    .fil3 {fill:#E6E7E8}
    .fil2 {fill:#96989A}
    .fil1 {fill:#848688}
    .fil4 {fill:#FEFEFE;fill-rule:nonzero}
   ]]>
  </style>
 </defs>
 <g id="Layer_x0020_1">
  <metadata id="CorelCorpID_0Corel-Layer"/>
  <g id="_1005642392">
   <path class="fil0" d="M51.25 46.9c17.92,-15.96 48.24,-16.89 72.9,-8.25 24.77,8.88 43.55,27.2 60.36,43.09 16.64,15.82 31.16,29.14 47.83,46.77 16.75,17.46 35.74,39.06 43.39,66.23 7.48,27.1 3.46,59.71 -15.76,75.91 -19.46,16.3 -53.89,16.1 -82.28,14.85 -28.32,-1.41 -50.21,-3.89 -78.94,-2.48 -28.72,1.41 -64.11,6.79 -82.12,-7.22 -18.01,-14 -18.65,-47.38 -14.61,-75.79 4.04,-28.41 12.76,-51.85 19.51,-79.11 6.92,-27.19 12.03,-58.14 29.71,-74z"/>
   <polygon class="fil1" points="247.12,128.51 208.85,24.85 59.66,56.89 91.56,105.16 "/>
   <polygon class="fil2" points="46.15,99.82 46.15,240.77 204.84,240.77 204.84,82.08 "/>
   <polygon class="fil3" points="204.84,240.77 247.12,232.73 247.12,128.51 204.84,82.08 "/>
   <polygon class="fil3" points="54.8,67.47 204.84,45.59 208.85,24.85 59.66,56.89 "/>
   <path class="fil0" d="M313.84 0l32.94 48.48 -58.74 39.78 -42.9 -3.38c-6.23,2.83 -14.57,8.64 -14.57,16.43 0,2.2 2.37,9.49 2.37,9.49 0,0 -9.82,-10.61 -2.37,-19.58 7.45,-8.98 11.38,-9.45 11.52,-9.89l13.38 -41.67 58.36 -39.66zm-61.16 72.18c2.48,0 4.49,2.01 4.49,4.49 0,2.48 -2.01,4.49 -4.49,4.49 -2.48,0 -4.49,-2.01 -4.49,-4.49 0,-2.48 2.01,-4.49 4.49,-4.49z"/>
   <path class="fil4" d="M319.14 117.38c1.57,0 3.24,0.42 4.98,1.27 1.74,0.84 3.07,1.94 3.97,3.29l41.02 63.14 -8.44 -0.34 42.04 -62.8c2.14,-3.04 4.9,-4.56 8.27,-4.56 2.7,0 5.12,0.96 7.26,2.87 2.14,1.91 3.21,4.39 3.21,7.43l0 97.75c0,2.93 -0.96,5.37 -2.87,7.34 -1.91,1.97 -4.45,2.95 -7.6,2.95 -3.15,0 -5.71,-0.98 -7.68,-2.95 -1.97,-1.97 -2.95,-4.42 -2.95,-7.34l0 -79.52 6.58 1.52 -34.44 52.5c-1.01,1.24 -2.28,2.31 -3.8,3.21 -1.52,0.9 -3.07,1.29 -4.64,1.18 -1.46,0.11 -2.95,-0.28 -4.47,-1.18 -1.52,-0.9 -2.79,-1.97 -3.8,-3.21l-32.24 -50.99 4.39 -8.95 0 85.43c0,2.93 -0.9,5.37 -2.7,7.34 -1.8,1.97 -4.16,2.95 -7.09,2.95 -2.81,0 -5.12,-0.98 -6.92,-2.95 -1.8,-1.97 -2.7,-4.42 -2.7,-7.34l0 -97.75c0,-2.81 1.04,-5.23 3.12,-7.26 2.08,-2.03 4.59,-3.04 7.51,-3.04zm196.3 28.03c2.93,0 5.35,0.98 7.26,2.95 1.91,1.97 2.87,4.42 2.87,7.34l0 71.75c0,10.35 -1.94,18.6 -5.82,24.73 -3.88,6.13 -9.09,10.55 -15.62,13.25 -6.53,2.7 -13.84,4.05 -21.95,4.05 -3.6,0 -7.43,-0.28 -11.48,-0.84 -4.05,-0.56 -7.37,-1.41 -9.96,-2.53 -3.38,-1.46 -5.71,-3.29 -7.01,-5.49 -1.29,-2.19 -1.55,-4.53 -0.76,-7.01 1.01,-3.26 2.65,-5.49 4.9,-6.67 2.25,-1.18 4.61,-1.32 7.09,-0.42 1.8,0.56 4.16,1.44 7.09,2.62 2.93,1.18 6.3,1.77 10.13,1.77 5.18,0 9.48,-0.7 12.91,-2.11 3.43,-1.41 6.02,-3.77 7.77,-7.09 1.74,-3.32 2.62,-7.85 2.62,-13.59l0 -11.31 3.55 4.05c-1.91,3.71 -4.31,6.78 -7.17,9.2 -2.87,2.42 -6.27,4.25 -10.21,5.49 -3.94,1.24 -8.44,1.86 -13.51,1.86 -5.97,0 -11.17,-1.38 -15.62,-4.14 -4.45,-2.76 -7.91,-6.58 -10.38,-11.48 -2.48,-4.9 -3.71,-10.5 -3.71,-16.8l0 -49.3c0,-2.93 0.96,-5.37 2.87,-7.34 1.91,-1.97 4.33,-2.95 7.26,-2.95 2.93,0 5.35,0.98 7.26,2.95 1.91,1.97 2.87,4.42 2.87,7.34l0 43.22c0,7.31 1.6,12.46 4.81,15.45 3.21,2.98 7.68,4.47 13.42,4.47 3.94,0 7.26,-0.76 9.96,-2.28 2.7,-1.52 4.78,-3.77 6.25,-6.75 1.46,-2.98 2.19,-6.61 2.19,-10.89l0 -43.22c0,-2.93 0.96,-5.37 2.87,-7.34 1.91,-1.97 4.33,-2.95 7.26,-2.95zm47.23 90.32c-2.93,0 -5.35,-0.98 -7.26,-2.95 -1.91,-1.97 -2.87,-4.42 -2.87,-7.34l0 -104.33c0,-2.93 0.96,-5.37 2.87,-7.34 1.91,-1.97 4.33,-2.95 7.26,-2.95 2.93,0 5.35,0.98 7.26,2.95 1.91,1.97 2.87,4.42 2.87,7.34l0 104.33c0,2.93 -0.96,5.37 -2.87,7.34 -1.91,1.97 -4.33,2.95 -7.26,2.95zm53.69 -90.32c2.59,0 4.84,1.07 6.75,3.21 1.91,2.14 2.87,4.22 2.87,6.25 0,2.7 -1.35,5.23 -4.05,7.6l-50.82 46.76 -0.84 -23.3 38.66 -37.31c2.14,-2.14 4.61,-3.21 7.43,-3.21zm2.53 90.15c-2.93,0 -5.4,-1.13 -7.43,-3.38l-31.23 -33.09 15.36 -14.18 30.39 33.09c2.14,2.25 3.21,4.78 3.21,7.6 0,2.93 -1.15,5.32 -3.46,7.17 -2.31,1.86 -4.59,2.79 -6.84,2.79z"/>
  </g>
 </g>
</svg>
